<?xml version="1.0" encoding="UTF-8"?>
<svg id="Layer_2" data-name="Layer 2" xmlns="http://www.w3.org/2000/svg" viewBox="0 0 378.11 409.57">
  <defs>
    <style>
      .cls-1 {
        fill: #e6e6e6;
        stroke: #fff;
        stroke-miterlimit: 10;
      }
    </style>
  </defs>
  <g id="Layer_1-2" data-name="Layer 1">
    <g>
      <path class="cls-1" d="M236.38,226.71c-9.04,12.73-19.37,23.77-27.22,37.81-4.25,7.56-7.79,15.04-11.19,22.94-15.63,37.24-21.71,79.05-15.52,119,.2,1.27-.86,2.37-2.14,2.22-15.91-1.87-31.33-8.92-43.53-21.13l-114.64-114.63c-28.86-28.87-28.86-75.67,0-104.54L189.06,1.47h0c-5.22,30.35-16.32,59.97-32.99,84.21-9.04,12.73-19.37,23.77-27.22,37.81-4.25,7.56-7.79,15.04-11.2,22.94-19.26,45.91-24.03,98.76-9.15,146.52l.95-.11c1.05-15.99,3.21-31.5,6.8-46.49,6.89-29.15,18.7-57.15,35.33-81.95,3.49-5.28,9.05-12.65,12.92-17.78,6.73-8.88,13.71-19.24,19.45-29.47,3.11-5.37,6.19-11.5,8.96-17.09,10.29-21.16,16.61-44.58,19.62-67.49.05-.4.1-.8.15-1.2.27-2.28,3.05-3.25,4.67-1.62l14.8,14.8c.4.4.6.95.56,1.5-2.68,38.36-14.94,77.25-35.93,107.78-9.04,12.73-19.37,23.76-27.22,37.8-4.24,7.56-7.8,15.05-11.2,22.94-19.26,45.92-24.03,98.77-9.15,146.53l.94-.11c1.06-15.99,3.21-31.5,6.81-46.5,6.88-29.14,18.69-57.14,35.32-81.95,3.49-5.28,9.05-12.64,12.92-17.77,6.72-8.89,13.71-19.25,19.45-29.48,3.11-5.37,6.18-11.5,8.96-17.08,10.29-21.16,16.61-44.58,19.61-67.49,1.18-9.44,1.88-18.96,2.03-28.48.03-1.69,2.08-2.52,3.28-1.32l13.11,13.11c.33.33.53.75.56,1.21,3.93,48.28-8.62,101.91-35.81,141.45Z"/>
      <path class="cls-1" d="M355.96,272.91l-114.64,114.63c-13.36,13.36-30.54,20.53-48.03,21.53-.47.03-.84-.39-.77-.85,1.07-7.05,2.4-14,4.05-20.84,6.88-29.15,18.69-57.15,35.32-81.96,3.49-5.27,9.05-12.64,12.92-17.77,6.73-8.89,13.72-19.25,19.45-29.47,3.11-5.38,6.19-11.5,8.96-17.09,10.29-21.16,16.61-44.58,19.62-67.49,2.77-22.29,2.92-45.04-.66-67.16-.11-.7.73-1.14,1.23-.63l62.56,62.56c28.87,28.87,28.87,75.67,0,104.54Z"/>
    </g>
  </g>
</svg>